<mxfile host="app.diagrams.net" modified="2023-04-15T17:31:09.871Z" agent="Mozilla/5.0 (Windows NT 10.0; Win64; x64) AppleWebKit/537.36 (KHTML, like Gecko) Chrome/112.0.0.0 Safari/537.36" etag="Te_zqLl__YrV43pT04WD" version="21.1.8" type="github">
  <diagram name="Pagina-1" id="6JUquj071dppgk3kZcf5">
    <mxGraphModel dx="969" dy="551" grid="1" gridSize="10" guides="1" tooltips="1" connect="1" arrows="1" fold="1" page="1" pageScale="1" pageWidth="827" pageHeight="1169" math="0" shadow="0">
      <root>
        <mxCell id="0" />
        <mxCell id="1" parent="0" />
        <mxCell id="U18qOftS7bFx01JsZrya-1" value="" style="image;html=1;image=img/lib/clip_art/networking/Router_Icon_128x128.png" parent="1" vertex="1">
          <mxGeometry x="430" y="324" width="80" height="80" as="geometry" />
        </mxCell>
        <mxCell id="U18qOftS7bFx01JsZrya-8" value="" style="endArrow=none;html=1;rounded=0;entryX=0;entryY=0.5;entryDx=0;entryDy=0;" parent="1" source="U18qOftS7bFx01JsZrya-5" target="U18qOftS7bFx01JsZrya-1" edge="1">
          <mxGeometry width="50" height="50" relative="1" as="geometry">
            <mxPoint x="241.99999999999682" y="364" as="sourcePoint" />
            <mxPoint x="500" y="344" as="targetPoint" />
          </mxGeometry>
        </mxCell>
        <mxCell id="U18qOftS7bFx01JsZrya-9" value="" style="endArrow=none;html=1;rounded=0;" parent="1" source="U18qOftS7bFx01JsZrya-1" target="U18qOftS7bFx01JsZrya-3" edge="1">
          <mxGeometry width="50" height="50" relative="1" as="geometry">
            <mxPoint x="450" y="394" as="sourcePoint" />
            <mxPoint x="500" y="344" as="targetPoint" />
          </mxGeometry>
        </mxCell>
        <mxCell id="U18qOftS7bFx01JsZrya-12" value="" style="endArrow=none;html=1;rounded=0;" parent="1" source="U18qOftS7bFx01JsZrya-39" target="U18qOftS7bFx01JsZrya-1" edge="1">
          <mxGeometry width="50" height="50" relative="1" as="geometry">
            <mxPoint x="450" y="394" as="sourcePoint" />
            <mxPoint x="500" y="344" as="targetPoint" />
          </mxGeometry>
        </mxCell>
        <mxCell id="U18qOftS7bFx01JsZrya-23" value="" style="endArrow=none;html=1;rounded=0;" parent="1" target="U18qOftS7bFx01JsZrya-22" edge="1">
          <mxGeometry width="50" height="50" relative="1" as="geometry">
            <mxPoint x="470" y="196" as="sourcePoint" />
            <mxPoint x="410" y="167" as="targetPoint" />
          </mxGeometry>
        </mxCell>
        <mxCell id="U18qOftS7bFx01JsZrya-24" value="" style="endArrow=none;html=1;rounded=0;" parent="1" target="U18qOftS7bFx01JsZrya-15" edge="1">
          <mxGeometry width="50" height="50" relative="1" as="geometry">
            <mxPoint x="470" y="191" as="sourcePoint" />
            <mxPoint x="420" y="177" as="targetPoint" />
          </mxGeometry>
        </mxCell>
        <mxCell id="U18qOftS7bFx01JsZrya-31" value="" style="outlineConnect=0;dashed=0;verticalLabelPosition=bottom;verticalAlign=top;align=center;html=1;shape=mxgraph.aws3.internet_gateway;fillColor=#F58536;gradientColor=none;" parent="1" vertex="1">
          <mxGeometry x="720" y="334.5" width="60" height="59" as="geometry" />
        </mxCell>
        <mxCell id="U18qOftS7bFx01JsZrya-32" value="" style="endArrow=none;html=1;rounded=0;" parent="1" source="U18qOftS7bFx01JsZrya-6" target="U18qOftS7bFx01JsZrya-31" edge="1">
          <mxGeometry width="50" height="50" relative="1" as="geometry">
            <mxPoint x="550" y="400" as="sourcePoint" />
            <mxPoint x="600" y="350" as="targetPoint" />
          </mxGeometry>
        </mxCell>
        <mxCell id="U18qOftS7bFx01JsZrya-34" value="" style="endArrow=none;html=1;rounded=0;" parent="1" source="U18qOftS7bFx01JsZrya-1" target="U18qOftS7bFx01JsZrya-6" edge="1">
          <mxGeometry width="50" height="50" relative="1" as="geometry">
            <mxPoint x="510" y="364" as="sourcePoint" />
            <mxPoint x="650" y="364" as="targetPoint" />
          </mxGeometry>
        </mxCell>
        <mxCell id="U18qOftS7bFx01JsZrya-6" value="" style="image;html=1;image=img/lib/clip_art/networking/Firewall_02_128x128.png" parent="1" vertex="1">
          <mxGeometry x="600" y="339" width="40" height="50" as="geometry" />
        </mxCell>
        <mxCell id="U18qOftS7bFx01JsZrya-44" value="" style="group" parent="1" vertex="1" connectable="0">
          <mxGeometry x="293.5" y="60" width="346.5" height="170" as="geometry" />
        </mxCell>
        <mxCell id="U18qOftS7bFx01JsZrya-33" value="" style="rounded=1;whiteSpace=wrap;html=1;" parent="U18qOftS7bFx01JsZrya-44" vertex="1">
          <mxGeometry x="30" width="290" height="170" as="geometry" />
        </mxCell>
        <mxCell id="U18qOftS7bFx01JsZrya-3" value="" style="image;aspect=fixed;perimeter=ellipsePerimeter;html=1;align=center;shadow=0;dashed=0;spacingTop=3;image=img/lib/active_directory/switch.svg;" parent="U18qOftS7bFx01JsZrya-44" vertex="1">
          <mxGeometry x="151.5" y="113" width="50" height="50" as="geometry" />
        </mxCell>
        <mxCell id="U18qOftS7bFx01JsZrya-15" value="" style="shape=mxgraph.cisco.computers_and_peripherals.laptop;html=1;pointerEvents=1;dashed=0;fillColor=#036897;strokeColor=#ffffff;strokeWidth=2;verticalLabelPosition=bottom;verticalAlign=top;align=center;outlineConnect=0;" parent="U18qOftS7bFx01JsZrya-44" vertex="1">
          <mxGeometry x="236.5" y="51" width="70" height="50" as="geometry" />
        </mxCell>
        <mxCell id="U18qOftS7bFx01JsZrya-16" value="" style="shape=mxgraph.cisco.computers_and_peripherals.laptop;html=1;pointerEvents=1;dashed=0;fillColor=#036897;strokeColor=#ffffff;strokeWidth=2;verticalLabelPosition=bottom;verticalAlign=top;align=center;outlineConnect=0;movable=0;resizable=0;rotatable=0;deletable=0;editable=0;locked=1;connectable=0;" parent="U18qOftS7bFx01JsZrya-44" vertex="1">
          <mxGeometry x="36.5" y="51" width="70" height="50" as="geometry" />
        </mxCell>
        <mxCell id="U18qOftS7bFx01JsZrya-22" value="" style="shape=mxgraph.cisco.computers_and_peripherals.laptop;html=1;pointerEvents=1;dashed=0;fillColor=#036897;strokeColor=#ffffff;strokeWidth=2;verticalLabelPosition=bottom;verticalAlign=top;align=center;outlineConnect=0;" parent="U18qOftS7bFx01JsZrya-44" vertex="1">
          <mxGeometry x="141.5" y="50" width="70" height="50" as="geometry" />
        </mxCell>
        <mxCell id="U18qOftS7bFx01JsZrya-21" value="" style="endArrow=none;html=1;rounded=0;" parent="U18qOftS7bFx01JsZrya-44" source="U18qOftS7bFx01JsZrya-3" target="U18qOftS7bFx01JsZrya-16" edge="1">
          <mxGeometry width="50" height="50" relative="1" as="geometry">
            <mxPoint x="370" y="231" as="sourcePoint" />
            <mxPoint x="420" y="181" as="targetPoint" />
          </mxGeometry>
        </mxCell>
        <mxCell id="U18qOftS7bFx01JsZrya-46" value="Public(5)" style="shape=note;whiteSpace=wrap;html=1;backgroundOutline=1;fontColor=#000000;darkOpacity=0.05;fillColor=#FFF9B2;strokeColor=none;fillStyle=solid;direction=west;gradientDirection=north;gradientColor=#FFF2A1;shadow=1;size=20;pointerEvents=1;" parent="U18qOftS7bFx01JsZrya-44" vertex="1">
          <mxGeometry x="236.5" y="100" width="63.5" height="60" as="geometry" />
        </mxCell>
        <mxCell id="U18qOftS7bFx01JsZrya-36" value="" style="rounded=1;whiteSpace=wrap;html=1;movable=1;resizable=1;rotatable=1;deletable=1;editable=1;locked=0;connectable=1;" parent="1" vertex="1">
          <mxGeometry x="300" y="494" width="340" height="238" as="geometry" />
        </mxCell>
        <mxCell id="U18qOftS7bFx01JsZrya-37" value="" style="group" parent="1" vertex="1" connectable="0">
          <mxGeometry x="340" y="674" width="260" height="50" as="geometry" />
        </mxCell>
        <mxCell id="U18qOftS7bFx01JsZrya-17" value="" style="shape=mxgraph.cisco.computers_and_peripherals.laptop;html=1;pointerEvents=1;dashed=0;fillColor=#036897;strokeColor=#ffffff;strokeWidth=2;verticalLabelPosition=bottom;verticalAlign=top;align=center;outlineConnect=0;" parent="U18qOftS7bFx01JsZrya-37" vertex="1">
          <mxGeometry x="190" width="70" height="50" as="geometry" />
        </mxCell>
        <mxCell id="U18qOftS7bFx01JsZrya-19" value="" style="shape=mxgraph.cisco.computers_and_peripherals.laptop;html=1;pointerEvents=1;dashed=0;fillColor=#036897;strokeColor=#ffffff;strokeWidth=2;verticalLabelPosition=bottom;verticalAlign=top;align=center;outlineConnect=0;" parent="U18qOftS7bFx01JsZrya-37" vertex="1">
          <mxGeometry width="70" height="50" as="geometry" />
        </mxCell>
        <mxCell id="U18qOftS7bFx01JsZrya-20" value="" style="shape=mxgraph.cisco.computers_and_peripherals.laptop;html=1;pointerEvents=1;dashed=0;fillColor=#036897;strokeColor=#ffffff;strokeWidth=2;verticalLabelPosition=bottom;verticalAlign=top;align=center;outlineConnect=0;" parent="U18qOftS7bFx01JsZrya-37" vertex="1">
          <mxGeometry x="95" width="70" height="50" as="geometry" />
        </mxCell>
        <mxCell id="U18qOftS7bFx01JsZrya-30" value="" style="endArrow=none;html=1;rounded=0;" parent="1" source="U18qOftS7bFx01JsZrya-4" target="U18qOftS7bFx01JsZrya-17" edge="1">
          <mxGeometry width="50" height="50" relative="1" as="geometry">
            <mxPoint x="710" y="863" as="sourcePoint" />
            <mxPoint x="760" y="813" as="targetPoint" />
          </mxGeometry>
        </mxCell>
        <mxCell id="U18qOftS7bFx01JsZrya-28" value="" style="endArrow=none;html=1;rounded=0;" parent="1" source="U18qOftS7bFx01JsZrya-19" target="U18qOftS7bFx01JsZrya-4" edge="1">
          <mxGeometry width="50" height="50" relative="1" as="geometry">
            <mxPoint x="710" y="863" as="sourcePoint" />
            <mxPoint x="760" y="813" as="targetPoint" />
          </mxGeometry>
        </mxCell>
        <mxCell id="U18qOftS7bFx01JsZrya-29" value="" style="endArrow=none;html=1;rounded=0;" parent="1" source="U18qOftS7bFx01JsZrya-20" target="U18qOftS7bFx01JsZrya-4" edge="1">
          <mxGeometry width="50" height="50" relative="1" as="geometry">
            <mxPoint x="710" y="863" as="sourcePoint" />
            <mxPoint x="760" y="813" as="targetPoint" />
          </mxGeometry>
        </mxCell>
        <mxCell id="U18qOftS7bFx01JsZrya-45" value="" style="group" parent="1" vertex="1" connectable="0">
          <mxGeometry x="445" y="502" width="50" height="136" as="geometry" />
        </mxCell>
        <mxCell id="U18qOftS7bFx01JsZrya-4" value="" style="image;aspect=fixed;perimeter=ellipsePerimeter;html=1;align=center;shadow=0;dashed=0;spacingTop=3;image=img/lib/active_directory/switch.svg;" parent="U18qOftS7bFx01JsZrya-45" vertex="1">
          <mxGeometry y="86" width="50" height="50" as="geometry" />
        </mxCell>
        <mxCell id="U18qOftS7bFx01JsZrya-39" value="" style="outlineConnect=0;dashed=0;verticalLabelPosition=bottom;verticalAlign=top;align=center;html=1;shape=mxgraph.aws3.vpc_nat_gateway;fillColor=#F58534;gradientColor=none;" parent="U18qOftS7bFx01JsZrya-45" vertex="1">
          <mxGeometry width="50" height="46" as="geometry" />
        </mxCell>
        <mxCell id="U18qOftS7bFx01JsZrya-38" value="" style="endArrow=none;html=1;rounded=0;" parent="U18qOftS7bFx01JsZrya-45" source="U18qOftS7bFx01JsZrya-4" target="U18qOftS7bFx01JsZrya-39" edge="1">
          <mxGeometry width="50" height="50" relative="1" as="geometry">
            <mxPoint x="810" y="942" as="sourcePoint" />
            <mxPoint x="810" y="806" as="targetPoint" />
          </mxGeometry>
        </mxCell>
        <mxCell id="U18qOftS7bFx01JsZrya-48" value="Private (30)" style="shape=note;whiteSpace=wrap;html=1;backgroundOutline=1;fontColor=#000000;darkOpacity=0.05;fillColor=#FFF9B2;strokeColor=none;fillStyle=solid;direction=west;gradientDirection=north;gradientColor=#FFF2A1;shadow=1;size=20;pointerEvents=1;" parent="1" vertex="1">
          <mxGeometry x="320" y="502" width="110" height="108" as="geometry" />
        </mxCell>
        <mxCell id="U18qOftS7bFx01JsZrya-49" value="&lt;h1&gt;NTW-06&lt;/h1&gt;&lt;div&gt;&lt;br&gt;&lt;/div&gt;" style="text;html=1;strokeColor=none;fillColor=none;spacing=5;spacingTop=-20;whiteSpace=wrap;overflow=hidden;rounded=0;" parent="1" vertex="1">
          <mxGeometry x="40" y="70" width="110" height="30" as="geometry" />
        </mxCell>
        <mxCell id="U18qOftS7bFx01JsZrya-42" value="" style="group;movable=1;resizable=1;rotatable=1;deletable=1;editable=1;locked=0;connectable=1;" parent="1" vertex="1" connectable="0">
          <mxGeometry x="52" y="282" width="223" height="185" as="geometry" />
        </mxCell>
        <mxCell id="U18qOftS7bFx01JsZrya-35" value="" style="rounded=1;whiteSpace=wrap;html=1;movable=1;resizable=1;rotatable=1;deletable=1;editable=1;locked=0;connectable=1;" parent="U18qOftS7bFx01JsZrya-42" vertex="1">
          <mxGeometry x="-30" y="-12.5" width="253" height="195" as="geometry" />
        </mxCell>
        <mxCell id="U18qOftS7bFx01JsZrya-18" value="" style="shape=mxgraph.cisco.computers_and_peripherals.laptop;html=1;pointerEvents=1;dashed=0;fillColor=#036897;strokeColor=#ffffff;strokeWidth=2;verticalLabelPosition=bottom;verticalAlign=top;align=center;outlineConnect=0;movable=1;resizable=1;rotatable=1;deletable=1;editable=1;locked=0;connectable=1;" parent="U18qOftS7bFx01JsZrya-42" vertex="1">
          <mxGeometry width="70" height="50" as="geometry" />
        </mxCell>
        <mxCell id="U18qOftS7bFx01JsZrya-5" value="" style="image;aspect=fixed;perimeter=ellipsePerimeter;html=1;align=center;shadow=0;dashed=0;spacingTop=3;image=img/lib/active_directory/switch.svg;movable=1;resizable=1;rotatable=1;deletable=1;editable=1;locked=0;connectable=1;" parent="U18qOftS7bFx01JsZrya-42" vertex="1">
          <mxGeometry x="140" y="58" width="50" height="50" as="geometry" />
        </mxCell>
        <mxCell id="U18qOftS7bFx01JsZrya-13" value="" style="shape=mxgraph.cisco.computers_and_peripherals.laptop;html=1;pointerEvents=1;dashed=0;fillColor=#036897;strokeColor=#ffffff;strokeWidth=2;verticalLabelPosition=bottom;verticalAlign=top;align=center;outlineConnect=0;movable=1;resizable=1;rotatable=1;deletable=1;editable=1;locked=0;connectable=1;" parent="U18qOftS7bFx01JsZrya-42" vertex="1">
          <mxGeometry x="-2" y="122" width="70" height="50" as="geometry" />
        </mxCell>
        <mxCell id="U18qOftS7bFx01JsZrya-14" value="" style="shape=mxgraph.cisco.computers_and_peripherals.laptop;html=1;pointerEvents=1;dashed=0;fillColor=#036897;strokeColor=#ffffff;strokeWidth=2;verticalLabelPosition=bottom;verticalAlign=top;align=center;outlineConnect=0;movable=1;resizable=1;rotatable=1;deletable=1;editable=1;locked=0;connectable=1;" parent="U18qOftS7bFx01JsZrya-42" vertex="1">
          <mxGeometry y="60" width="70" height="50" as="geometry" />
        </mxCell>
        <mxCell id="U18qOftS7bFx01JsZrya-27" value="" style="endArrow=none;html=1;rounded=0;exitX=0.95;exitY=0.5;exitDx=0;exitDy=0;exitPerimeter=0;entryX=0;entryY=1;entryDx=0;entryDy=0;movable=1;resizable=1;rotatable=1;deletable=1;editable=1;locked=0;connectable=1;" parent="U18qOftS7bFx01JsZrya-42" source="U18qOftS7bFx01JsZrya-13" target="U18qOftS7bFx01JsZrya-5" edge="1">
          <mxGeometry width="50" height="50" relative="1" as="geometry">
            <mxPoint x="370" y="361" as="sourcePoint" />
            <mxPoint x="420" y="311" as="targetPoint" />
          </mxGeometry>
        </mxCell>
        <mxCell id="U18qOftS7bFx01JsZrya-25" value="" style="endArrow=none;html=1;rounded=0;entryX=0.95;entryY=0.5;entryDx=0;entryDy=0;entryPerimeter=0;movable=1;resizable=1;rotatable=1;deletable=1;editable=1;locked=0;connectable=1;" parent="U18qOftS7bFx01JsZrya-42" source="U18qOftS7bFx01JsZrya-5" target="U18qOftS7bFx01JsZrya-18" edge="1">
          <mxGeometry width="50" height="50" relative="1" as="geometry">
            <mxPoint x="228" y="80" as="sourcePoint" />
            <mxPoint x="368" y="80" as="targetPoint" />
          </mxGeometry>
        </mxCell>
        <mxCell id="WMR-u7DB_l0F9wGRh-JV-2" value="" style="endArrow=none;html=1;rounded=0;" edge="1" parent="U18qOftS7bFx01JsZrya-42" source="U18qOftS7bFx01JsZrya-14" target="U18qOftS7bFx01JsZrya-5">
          <mxGeometry width="50" height="50" relative="1" as="geometry">
            <mxPoint x="278" y="218" as="sourcePoint" />
            <mxPoint x="328" y="168" as="targetPoint" />
          </mxGeometry>
        </mxCell>
        <mxCell id="U18qOftS7bFx01JsZrya-47" value="Private (15)" style="shape=note;whiteSpace=wrap;html=1;backgroundOutline=1;fontColor=#000000;darkOpacity=0.05;fillColor=#FFF9B2;strokeColor=none;fillStyle=solid;direction=west;gradientDirection=north;gradientColor=#FFF2A1;shadow=1;size=20;pointerEvents=1;movable=1;resizable=1;rotatable=1;deletable=1;editable=1;locked=0;connectable=1;" parent="1" vertex="1">
          <mxGeometry x="180" y="276" width="63.5" height="60" as="geometry" />
        </mxCell>
      </root>
    </mxGraphModel>
  </diagram>
</mxfile>
